<svg width="137" height="35" viewBox="0 0 137 35" fill="none" xmlns="http://www.w3.org/2000/svg">
<path d="M29.8398 16.1745C30.0314 16.5078 30.1322 16.8855 30.1322 17.27C30.1322 17.6545 30.0314 18.0322 29.8398 18.3655L25.531 25.7989C25.3385 26.1308 25.0622 26.4063 24.7298 26.5979C24.3975 26.7894 24.0206 26.8904 23.637 26.8906L15.0656 26.8906C14.6846 26.8877 14.3109 26.7855 13.9815 26.594C13.652 26.4026 13.3782 26.1285 13.187 25.7989L8.87818 18.3655C8.68663 18.0322 8.58582 17.6545 8.58582 17.27C8.58582 16.8855 8.68663 16.5078 8.87818 16.1745L11.2583 12.0701L16.5546 21.1275C16.6418 21.2825 16.7691 21.4113 16.9232 21.5002C17.0772 21.5891 17.2524 21.6349 17.4302 21.6328L21.2877 21.6328C21.4656 21.6349 21.6408 21.5891 21.7948 21.5002C21.9489 21.4113 22.0762 21.2825 22.1634 21.1275L24.0921 17.7599C24.1795 17.6086 24.2255 17.437 24.2255 17.2623C24.2255 17.0876 24.1795 16.916 24.0921 16.7647L15.3973 1.72045C15.0956 1.19867 14.662 0.765398 14.14 0.464105C13.618 0.162813 13.0259 0.00408893 12.4232 0.00385911L11.644 0.00385914C10.9544 0.00359764 10.2769 0.184924 9.6797 0.529597C9.08244 0.87427 8.58648 1.37014 8.24169 1.96733L0.526706 15.3104C0.181668 15.9072 -7.84862e-07 16.5845 -7.54727e-07 17.2739C-7.24593e-07 17.9633 0.181668 18.6405 0.526706 19.2373L8.2417 32.5804C8.58697 33.1769 9.08314 33.672 9.68036 34.0159C10.2776 34.3599 10.9548 34.5407 11.644 34.54L27.074 34.54C27.7636 34.5403 28.441 34.3589 29.0383 34.0143C29.6355 33.6696 30.1315 33.1737 30.4763 32.5765L38.1913 19.2335C38.5363 18.6366 38.718 17.9594 38.718 17.27C38.718 16.5806 38.5363 15.9034 38.1913 15.3065L30.4763 1.96347C30.1315 1.36628 29.6355 0.870411 29.0383 0.525738C28.441 0.181065 27.7636 -0.00025847 27.074 3.09408e-06L20.5162 3.38073e-06L29.8398 16.1745Z" fill="#475BE8"/>
<path d="M51.978 23.77V10.81H54.147V16.264H60.285V10.81H62.445V23.77H60.285V18.298H54.147V23.77H51.978ZM69.2612 24.04C68.2892 24.04 67.4402 23.821 66.7142 23.383C65.9882 22.945 65.4242 22.342 65.0222 21.574C64.6262 20.8 64.4282 19.912 64.4282 18.91C64.4282 17.89 64.6322 16.996 65.0402 16.228C65.4482 15.46 66.0152 14.86 66.7412 14.428C67.4672 13.996 68.3072 13.78 69.2612 13.78C70.2392 13.78 71.0912 13.999 71.8172 14.437C72.5432 14.875 73.1072 15.481 73.5092 16.255C73.9112 17.023 74.1122 17.908 74.1122 18.91C74.1122 19.918 73.9082 20.809 73.5002 21.583C73.0982 22.351 72.5342 22.954 71.8082 23.392C71.0822 23.824 70.2332 24.04 69.2612 24.04ZM69.2612 22.006C70.1252 22.006 70.7672 21.718 71.1872 21.142C71.6072 20.566 71.8172 19.822 71.8172 18.91C71.8172 17.968 71.6042 17.218 71.1782 16.66C70.7522 16.096 70.1132 15.814 69.2612 15.814C68.6792 15.814 68.1992 15.946 67.8212 16.21C67.4492 16.468 67.1732 16.831 66.9932 17.299C66.8132 17.761 66.7232 18.298 66.7232 18.91C66.7232 19.852 66.9362 20.605 67.3622 21.169C67.7942 21.727 68.4272 22.006 69.2612 22.006ZM87.7682 23.77V17.866C87.7682 17.2 87.6032 16.681 87.2732 16.309C86.9432 15.931 86.4962 15.742 85.9322 15.742C85.5842 15.742 85.2722 15.823 84.9962 15.985C84.7202 16.141 84.5012 16.375 84.3392 16.687C84.1772 16.993 84.0962 17.359 84.0962 17.785L83.1332 17.218C83.1272 16.546 83.2772 15.955 83.5832 15.445C83.8952 14.929 84.3152 14.527 84.8432 14.239C85.3712 13.951 85.9592 13.807 86.6072 13.807C87.6812 13.807 88.5032 14.131 89.0732 14.779C89.6492 15.421 89.9372 16.267 89.9372 17.317V23.77H87.7682ZM76.0772 23.77V14.05H77.9942V17.065H78.2642V23.77H76.0772ZM81.9362 23.77V17.893C81.9362 17.215 81.7712 16.687 81.4412 16.309C81.1112 15.931 80.6612 15.742 80.0912 15.742C79.5392 15.742 79.0952 15.931 78.7592 16.309C78.4292 16.687 78.2642 17.179 78.2642 17.785L77.2922 17.137C77.2922 16.507 77.4482 15.94 77.7602 15.436C78.0722 14.932 78.4922 14.536 79.0202 14.248C79.5542 13.954 80.1512 13.807 80.8112 13.807C81.5372 13.807 82.1432 13.963 82.6292 14.275C83.1212 14.581 83.4872 15.001 83.7272 15.535C83.9732 16.063 84.0962 16.66 84.0962 17.326V23.77H81.9362ZM96.5454 24.04C95.5614 24.04 94.6974 23.827 93.9534 23.401C93.2094 22.975 92.6274 22.384 92.2074 21.628C91.7934 20.872 91.5864 20.002 91.5864 19.018C91.5864 17.956 91.7904 17.035 92.1984 16.255C92.6064 15.469 93.1734 14.86 93.8994 14.428C94.6254 13.996 95.4654 13.78 96.4194 13.78C97.4274 13.78 98.2824 14.017 98.9844 14.491C99.6924 14.959 100.217 15.622 100.559 16.48C100.901 17.338 101.03 18.349 100.946 19.513H98.7954V18.721C98.7894 17.665 98.6034 16.894 98.2374 16.408C97.8714 15.922 97.2954 15.679 96.5094 15.679C95.6214 15.679 94.9614 15.955 94.5294 16.507C94.0974 17.053 93.8814 17.854 93.8814 18.91C93.8814 19.894 94.0974 20.656 94.5294 21.196C94.9614 21.736 95.5914 22.006 96.4194 22.006C96.9534 22.006 97.4124 21.889 97.7964 21.655C98.1864 21.415 98.4864 21.07 98.6964 20.62L100.838 21.268C100.466 22.144 99.8904 22.825 99.1104 23.311C98.3364 23.797 97.4814 24.04 96.5454 24.04ZM93.1974 19.513V17.875H99.8844V19.513H93.1974ZM102.955 23.77V10.81H105.124V16.264H111.262V10.81H113.422V23.77H111.262V18.298H105.124V23.77H102.955ZM119.59 24.049C118.87 24.049 118.276 23.929 117.808 23.689C117.34 23.449 116.968 23.143 116.692 22.771C116.416 22.399 116.212 22.003 116.08 21.583C115.948 21.163 115.861 20.767 115.819 20.395C115.783 20.017 115.765 19.711 115.765 19.477V14.05H117.961V18.73C117.961 19.03 117.982 19.369 118.024 19.747C118.066 20.119 118.162 20.479 118.312 20.827C118.468 21.169 118.696 21.451 118.996 21.673C119.302 21.895 119.713 22.006 120.229 22.006C120.505 22.006 120.778 21.961 121.048 21.871C121.318 21.781 121.561 21.628 121.777 21.412C121.999 21.19 122.176 20.887 122.308 20.503C122.44 20.119 122.506 19.633 122.506 19.045L123.793 19.594C123.793 20.422 123.631 21.172 123.307 21.844C122.989 22.516 122.518 23.053 121.894 23.455C121.27 23.851 120.502 24.049 119.59 24.049ZM122.767 23.77V20.755H122.506V14.05H124.684V23.77H122.767ZM131.883 24.04C130.935 24.04 130.14 23.815 129.498 23.365C128.856 22.915 128.373 22.303 128.049 21.529C127.725 20.749 127.563 19.876 127.563 18.91C127.563 17.932 127.725 17.056 128.049 16.282C128.373 15.508 128.847 14.899 129.471 14.455C130.101 14.005 130.878 13.78 131.802 13.78C132.72 13.78 133.515 14.005 134.187 14.455C134.865 14.899 135.39 15.508 135.762 16.282C136.134 17.05 136.32 17.926 136.32 18.91C136.32 19.882 136.137 20.755 135.771 21.529C135.405 22.303 134.889 22.915 134.223 23.365C133.557 23.815 132.777 24.04 131.883 24.04ZM127.194 23.77V10.81H129.381V16.948H129.111V23.77H127.194ZM131.55 22.096C132.114 22.096 132.579 21.955 132.945 21.673C133.311 21.391 133.581 21.01 133.755 20.53C133.935 20.044 134.025 19.504 134.025 18.91C134.025 18.322 133.935 17.788 133.755 17.308C133.575 16.822 133.296 16.438 132.918 16.156C132.54 15.868 132.06 15.724 131.478 15.724C130.926 15.724 130.476 15.859 130.128 16.129C129.78 16.393 129.522 16.765 129.354 17.245C129.192 17.719 129.111 18.274 129.111 18.91C129.111 19.54 129.192 20.095 129.354 20.575C129.522 21.055 129.783 21.43 130.137 21.7C130.497 21.964 130.968 22.096 131.55 22.096Z" fill="#475BE8"/>
</svg>
